<svg id="Layer_3" enable-background="new 0 0 64 64" height="512" viewBox="0 0 64 64" width="512" xmlns="http://www.w3.org/2000/svg"><g><path fill="#FFFFFF" d="m46.923 17.027c-4.229-.248-8.23 1.211-11.279 4.12-3.05 2.912-4.699 6.839-4.643 11.057.046 3.496-1.25 6.761-3.651 9.194-2.292 2.323-5.352 3.602-8.617 3.602h-.604c-7.239 0-13.129-5.832-13.129-13s5.832-13 13-13h8c.552 0 1 .447 1 1v1.586l3.586-3.586-3.586-3.586v1.586c0 .553-.448 1-1 1h-8c-4.141 0-7.996 1.65-10.855 4.648-2.857 2.995-4.323 6.931-4.127 11.08.355 7.537 6.531 13.794 14.059 14.244 4.224.248 8.23-1.211 11.278-4.12 3.049-2.91 4.699-6.836 4.644-11.053-.043-3.318 1.243-6.473 3.621-8.882 2.457-2.489 5.877-3.917 9.38-3.917h.345c6.978 0 12.655 5.643 12.655 12.579v.421c0 7.168-5.832 13-13 13h-8c-.552 0-1-.447-1-1v-1.586l-3.586 3.586 3.586 3.586v-1.586c0-.553.448-1 1-1h8c4.141 0 7.996-1.65 10.855-4.648 2.857-2.995 4.323-6.931 4.127-11.08-.355-7.538-6.531-13.794-14.059-14.245z"/><path fill="#FFFFFF" d="m46 37c-1.103 0-2-.897-2-2h-2c0 1.859 1.28 3.411 3 3.858v2.142h2v-2.142c1.72-.447 3-1.999 3-3.858 0-2.206-1.794-4-4-4-1.103 0-2-.897-2-2s.897-2 2-2 2 .897 2 2h2c0-1.859-1.28-3.411-3-3.858v-2.142h-2v2.142c-1.72.447-3 1.999-3 3.858 0 2.206 1.794 4 4 4 1.103 0 2 .897 2 2s-.897 2-2 2z"/><path fill="#FFFFFF" d="m23.814 24.581-1.628-1.162-4.186 5.86-4.186-5.86-1.628 1.162 4.814 6.74v1.679h-4v2h4v2h-4v2h4v2h2v-2h4v-2h-4v-2h4v-2h-4v-1.679z"/></g></svg>